<svg width="492" height="352" viewBox="0 0 492 352" fill="none" xmlns="http://www.w3.org/2000/svg">
<path d="M491.391 351.467H0V0H491.391V351.467ZM3.38152 348.096H488.009V3.37661H3.37171L3.38152 348.096Z" fill="white"/>
<path d="M25.1509 181.468H55.1146C72.0126 181.52 80.4615 190.898 80.4615 209.603V297.583C80.4615 316.235 71.524 325.586 53.6491 325.635H25.1509V181.468ZM39.4367 195.415V311.741H52.8405C61.7306 311.741 66.1756 307.03 66.1756 297.607V209.628C66.1756 200.153 61.7306 195.415 52.8405 195.415H39.4367Z" fill="white"/>
<path d="M142.359 246.521V260.596H112.327V311.727H147.196V325.645H98.041V181.468H147.196V195.415H112.327V246.546L142.359 246.521Z" fill="white"/>
<path d="M161.114 207.109C161.114 188.407 170.32 179.055 188.73 179.052C207.193 179.052 216.423 188.404 216.42 207.109V223.737H202.139V207.109C202.139 197.781 197.694 193.092 188.804 193.043H188.657C179.835 193.043 175.416 197.732 175.4 207.109V220.9C175.4 228.911 182.774 238.214 197.522 248.81C210.121 257.798 216.42 268.47 216.42 280.827V300.018C216.42 318.769 207.215 328.146 188.804 328.149C170.341 328.1 161.111 318.723 161.114 300.018V283.39H175.4V300.018C175.4 309.392 179.868 314.081 188.804 314.084C197.74 314.087 202.185 309.399 202.139 300.018V282.728C202.139 274.083 194.765 264.487 180.017 253.941C167.415 244.904 161.114 234.037 161.114 221.341V207.109Z" fill="white"/>
<path d="M234.372 181.468H248.658V325.635H234.372V181.468Z" fill="white"/>
<path d="M321.911 299.999C321.911 318.704 312.681 328.08 294.221 328.129C275.761 328.178 266.556 318.802 266.605 299.999V207.109C266.605 188.407 275.81 179.055 294.221 179.052C312.684 179.052 321.914 188.404 321.911 207.109V223.737H307.61V207.109C307.61 197.781 303.166 193.092 294.279 193.043H294.133C285.291 193.043 280.873 197.732 280.876 207.109V299.999C280.876 309.372 285.319 314.061 294.206 314.064C303.145 314.064 307.613 309.376 307.61 299.999V260.596H296.549V246.531H321.896L321.911 299.999Z" fill="white"/>
<path d="M339.495 181.468H354.511L382.127 298.534V181.762L394.8 181.546V325.63H379.784L352.972 211.132V325.63H339.495V181.468Z" fill="white"/>
<path d="M412.385 207.109C412.385 188.407 421.59 179.055 440.001 179.052C458.464 179.052 467.694 188.404 467.691 207.109V223.737H453.405V207.109C453.405 197.781 448.961 193.092 440.074 193.043H439.927C431.086 193.043 426.666 197.732 426.666 207.109V220.9C426.666 228.911 434.042 238.214 448.793 248.81C461.395 257.798 467.694 268.47 467.691 280.827V300.018C467.691 318.769 458.485 328.146 440.074 328.149C421.611 328.1 412.381 318.723 412.385 300.018V283.39H426.666V300.018C426.666 309.392 431.135 314.081 440.074 314.084C448.961 314.084 453.405 309.395 453.405 300.018V282.728C453.405 274.083 446.031 264.487 431.282 253.941C418.681 244.904 412.381 234.037 412.385 221.341V207.109Z" fill="white"/>
<path d="M421.941 27.5916V75.2373H380.064V27.5916H353.834L334.721 73.6593V77.3055C348.262 87.7001 355.359 102.496 355.359 120.516C355.402 136.054 349.324 150.985 338.441 162.075H380.064V112.498H421.941V162.09H467.274V27.5916H421.941Z" fill="white"/>
<path d="M204.12 25.7097H157.522V163.942H189.868L204.08 128.892V97.7665C199.224 89.5331 196.729 79.903 196.729 69.1604C196.705 59.1237 199.235 49.246 204.08 40.4563L204.12 25.7097Z" fill="white"/>
<path d="M212.676 152.886L227.683 118.923C240.714 126.623 258.092 131.558 273.3 131.558C286.532 131.558 291.266 128.798 291.266 124.059C291.266 106.681 214.847 120.702 214.847 69.1702C214.847 43.4997 236.372 22.5684 279.22 22.5684C297.784 22.5684 316.956 26.5183 331.35 34.6145L317.328 68.3812C303.704 61.4711 290.864 58.114 278.828 58.114C265.198 58.114 260.856 62.0641 260.856 66.8032C260.856 83.3876 337.275 69.5672 337.275 120.511C337.275 145.79 315.75 167.113 272.903 167.113C249.78 167.103 226.497 161.379 212.676 152.886Z" fill="#FF5A38"/>
<path d="M84.2596 129.191H71.6206V163.947H25.0186V25.7195H91.5668C130.073 25.7195 154.557 45.8619 154.557 77.8496C154.557 97.7959 145.079 112.802 128.49 121.29L157.517 163.928H107.759L84.2596 129.191ZM88.6019 61.6572H71.6206V94.0418H88.6019C101.437 94.0418 107.558 87.9207 107.558 77.8691C107.558 67.8175 101.437 61.6572 88.6019 61.6572V61.6572Z" fill="white"/>
</svg>
